<svg width="1920" height="3361" viewBox="0 0 1920 3361" fill="none" xmlns="http://www.w3.org/2000/svg">
<g clip-path="url(#clip0_321_60)">
<rect width="1920" height="3361" fill="#F4F4F4"/>
<path d="M1992 153.5C1992 317.206 1858.63 450 1694 450C1529.37 450 1396 317.206 1396 153.5C1396 -10.2065 1529.37 -143 1694 -143C1858.63 -143 1992 -10.2065 1992 153.5Z" stroke="#0066E1" stroke-width="20"/>
<path d="M1948 153.5C1948 293.024 1834.33 406.214 1694 406.214C1553.67 406.214 1440 293.024 1440 153.5C1440 13.9757 1553.67 -99.2144 1694 -99.2144C1834.33 -99.2144 1948 13.9757 1948 153.5Z" stroke="#0066E1" stroke-width="20"/>
<path d="M2052 1338.5C2052 1502.21 1918.63 1635 1754 1635C1589.37 1635 1456 1502.21 1456 1338.5C1456 1174.79 1589.37 1042 1754 1042C1918.63 1042 2052 1174.79 2052 1338.5Z" stroke="#0066E1" stroke-width="20"/>
<path d="M2008 1338.5C2008 1478.02 1894.33 1591.21 1754 1591.21C1613.67 1591.21 1500 1478.02 1500 1338.5C1500 1198.98 1613.67 1085.79 1754 1085.79C1894.33 1085.79 2008 1198.98 2008 1338.5Z" stroke="#0066E1" stroke-width="20"/>
<path d="M315 1360.5C315 1524.21 181.627 1657 17 1657C-147.627 1657 -281 1524.21 -281 1360.5C-281 1196.79 -147.627 1064 17 1064C181.627 1064 315 1196.79 315 1360.5Z" stroke="#0066E1" stroke-width="20"/>
<path d="M271 1360.5C271 1500.02 157.326 1613.21 17 1613.21C-123.326 1613.21 -237 1500.02 -237 1360.5C-237 1220.98 -123.326 1107.79 17 1107.79C157.326 1107.79 271 1220.98 271 1360.5Z" stroke="#0066E1" stroke-width="20"/>
<path d="M2141 2450.5C2141 2614.21 2007.63 2747 1843 2747C1678.37 2747 1545 2614.21 1545 2450.5C1545 2286.79 1678.37 2154 1843 2154C2007.63 2154 2141 2286.79 2141 2450.5Z" stroke="#0066E1" stroke-width="20"/>
<path d="M2097 2450.5C2097 2590.02 1983.33 2703.21 1843 2703.21C1702.67 2703.21 1589 2590.02 1589 2450.5C1589 2310.98 1702.67 2197.79 1843 2197.79C1983.33 2197.79 2097 2310.98 2097 2450.5Z" stroke="#0066E1" stroke-width="20"/>
<path d="M775 2450.5C775 2614.21 641.627 2747 477 2747C312.373 2747 179 2614.21 179 2450.5C179 2286.79 312.373 2154 477 2154C641.627 2154 775 2286.79 775 2450.5Z" stroke="#0066E1" stroke-width="20"/>
<path d="M731 2450.5C731 2590.02 617.326 2703.21 477 2703.21C336.674 2703.21 223 2590.02 223 2450.5C223 2310.98 336.674 2197.79 477 2197.79C617.326 2197.79 731 2310.98 731 2450.5Z" stroke="#0066E1" stroke-width="20"/>
<path d="M1228 3425.5C1228 3589.21 1094.63 3722 930 3722C765.373 3722 632 3589.21 632 3425.5C632 3261.79 765.373 3129 930 3129C1094.63 3129 1228 3261.79 1228 3425.5Z" stroke="#0066E1" stroke-width="20"/>
<path d="M1184 3425.5C1184 3565.02 1070.33 3678.21 930 3678.21C789.674 3678.21 676 3565.02 676 3425.5C676 3285.98 789.674 3172.79 930 3172.79C1070.33 3172.79 1184 3285.98 1184 3425.5Z" stroke="#0066E1" stroke-width="20"/>
<path d="M1486.5 1634.16C1485.43 1634.16 1484.55 1634.01 1483.84 1633.71C1483.14 1633.4 1482.61 1633 1482.24 1632.51C1481.88 1632.02 1481.69 1631.5 1481.67 1630.94C1481.67 1630.86 1481.7 1630.78 1481.76 1630.72C1481.84 1630.65 1481.92 1630.61 1482.02 1630.61H1484.04C1484.18 1630.61 1484.3 1630.63 1484.37 1630.69C1484.46 1630.74 1484.53 1630.81 1484.6 1630.9C1484.68 1631.06 1484.8 1631.21 1484.95 1631.36C1485.11 1631.51 1485.32 1631.63 1485.57 1631.73C1485.83 1631.81 1486.14 1631.86 1486.5 1631.86C1487.12 1631.86 1487.58 1631.76 1487.89 1631.57C1488.21 1631.38 1488.37 1631.11 1488.37 1630.78C1488.37 1630.54 1488.29 1630.34 1488.12 1630.19C1487.94 1630.04 1487.67 1629.91 1487.28 1629.79C1486.91 1629.66 1486.41 1629.54 1485.78 1629.41C1484.97 1629.24 1484.28 1629.02 1483.7 1628.75C1483.13 1628.47 1482.7 1628.12 1482.4 1627.68C1482.1 1627.23 1481.96 1626.68 1481.96 1626.02C1481.96 1625.37 1482.14 1624.78 1482.5 1624.27C1482.87 1623.76 1483.39 1623.36 1484.05 1623.07C1484.71 1622.78 1485.5 1622.64 1486.4 1622.64C1487.14 1622.64 1487.78 1622.74 1488.34 1622.93C1488.9 1623.12 1489.38 1623.38 1489.76 1623.7C1490.15 1624.02 1490.44 1624.36 1490.63 1624.72C1490.83 1625.07 1490.94 1625.42 1490.95 1625.76C1490.95 1625.85 1490.92 1625.93 1490.85 1626C1490.8 1626.06 1490.72 1626.1 1490.61 1626.1H1488.5C1488.38 1626.1 1488.28 1626.07 1488.2 1626.03C1488.11 1625.99 1488.04 1625.92 1487.97 1625.82C1487.91 1625.59 1487.74 1625.39 1487.46 1625.22C1487.19 1625.03 1486.84 1624.94 1486.4 1624.94C1485.93 1624.94 1485.57 1625.03 1485.3 1625.2C1485.04 1625.36 1484.92 1625.61 1484.92 1625.95C1484.92 1626.17 1484.98 1626.35 1485.12 1626.51C1485.27 1626.67 1485.51 1626.81 1485.84 1626.93C1486.18 1627.05 1486.65 1627.17 1487.24 1627.3C1488.21 1627.48 1488.99 1627.71 1489.59 1627.98C1490.18 1628.25 1490.62 1628.6 1490.9 1629.04C1491.19 1629.47 1491.33 1630.01 1491.33 1630.66C1491.33 1631.38 1491.12 1632.01 1490.71 1632.53C1490.29 1633.05 1489.72 1633.46 1489 1633.74C1488.28 1634.02 1487.45 1634.16 1486.5 1634.16ZM1496.6 1634.16C1495.34 1634.16 1494.34 1633.82 1493.59 1633.14C1492.84 1632.45 1492.45 1631.44 1492.42 1630.1C1492.42 1630.02 1492.42 1629.93 1492.42 1629.81C1492.42 1629.69 1492.42 1629.6 1492.42 1629.54C1492.45 1628.69 1492.64 1627.97 1492.98 1627.38C1493.33 1626.77 1493.81 1626.31 1494.42 1626C1495.04 1625.68 1495.76 1625.52 1496.58 1625.52C1497.52 1625.52 1498.29 1625.71 1498.9 1626.08C1499.52 1626.45 1499.98 1626.96 1500.29 1627.6C1500.6 1628.24 1500.76 1628.97 1500.76 1629.79V1630.18C1500.76 1630.29 1500.72 1630.39 1500.64 1630.46C1500.57 1630.54 1500.47 1630.58 1500.36 1630.58H1495.24C1495.24 1630.59 1495.24 1630.6 1495.24 1630.62C1495.24 1630.65 1495.24 1630.67 1495.24 1630.69C1495.25 1631 1495.3 1631.28 1495.4 1631.54C1495.5 1631.79 1495.65 1631.99 1495.84 1632.14C1496.05 1632.29 1496.29 1632.37 1496.58 1632.37C1496.79 1632.37 1496.97 1632.34 1497.11 1632.27C1497.26 1632.2 1497.38 1632.12 1497.48 1632.03C1497.57 1631.94 1497.65 1631.86 1497.7 1631.79C1497.8 1631.67 1497.87 1631.61 1497.92 1631.58C1497.99 1631.55 1498.08 1631.54 1498.21 1631.54H1500.2C1500.3 1631.54 1500.39 1631.57 1500.45 1631.63C1500.53 1631.7 1500.56 1631.78 1500.55 1631.89C1500.54 1632.07 1500.45 1632.29 1500.28 1632.54C1500.11 1632.8 1499.86 1633.06 1499.52 1633.31C1499.2 1633.56 1498.8 1633.76 1498.31 1633.92C1497.82 1634.08 1497.25 1634.16 1496.6 1634.16ZM1495.24 1628.99H1497.94V1628.96C1497.94 1628.61 1497.89 1628.31 1497.78 1628.06C1497.68 1627.81 1497.53 1627.61 1497.32 1627.47C1497.11 1627.33 1496.87 1627.26 1496.58 1627.26C1496.3 1627.26 1496.06 1627.33 1495.86 1627.47C1495.66 1627.61 1495.5 1627.81 1495.4 1628.06C1495.29 1628.31 1495.24 1628.61 1495.24 1628.96V1628.99ZM1504.75 1634.16C1504.18 1634.16 1503.66 1634.05 1503.2 1633.84C1502.75 1633.62 1502.4 1633.32 1502.13 1632.94C1501.86 1632.57 1501.73 1632.15 1501.73 1631.68C1501.73 1630.92 1502.04 1630.33 1502.66 1629.89C1503.28 1629.44 1504.1 1629.14 1505.12 1628.98L1507.12 1628.67V1628.45C1507.12 1628.06 1507.04 1627.77 1506.88 1627.57C1506.72 1627.37 1506.43 1627.26 1506 1627.26C1505.7 1627.26 1505.46 1627.32 1505.26 1627.44C1505.08 1627.56 1504.94 1627.72 1504.83 1627.92C1504.74 1628.06 1504.6 1628.13 1504.43 1628.13H1502.64C1502.52 1628.13 1502.43 1628.1 1502.37 1628.03C1502.3 1627.96 1502.28 1627.87 1502.29 1627.78C1502.29 1627.58 1502.36 1627.37 1502.5 1627.12C1502.65 1626.86 1502.87 1626.61 1503.17 1626.37C1503.47 1626.12 1503.85 1625.92 1504.32 1625.76C1504.79 1625.6 1505.36 1625.52 1506.03 1625.52C1506.72 1625.52 1507.3 1625.6 1507.79 1625.76C1508.28 1625.92 1508.68 1626.14 1508.99 1626.43C1509.3 1626.72 1509.53 1627.06 1509.66 1627.46C1509.81 1627.84 1509.89 1628.27 1509.89 1628.74V1633.6C1509.89 1633.71 1509.85 1633.8 1509.76 1633.89C1509.69 1633.96 1509.6 1634 1509.49 1634H1507.63C1507.52 1634 1507.42 1633.96 1507.34 1633.89C1507.27 1633.8 1507.23 1633.71 1507.23 1633.6V1633.04C1507.09 1633.24 1506.91 1633.43 1506.67 1633.6C1506.44 1633.77 1506.16 1633.9 1505.84 1634C1505.53 1634.11 1505.17 1634.16 1504.75 1634.16ZM1505.5 1632.34C1505.81 1632.34 1506.09 1632.27 1506.34 1632.14C1506.59 1632.01 1506.79 1631.8 1506.93 1631.52C1507.08 1631.23 1507.15 1630.87 1507.15 1630.45V1630.22L1505.79 1630.46C1505.29 1630.55 1504.92 1630.68 1504.69 1630.86C1504.46 1631.03 1504.35 1631.24 1504.35 1631.47C1504.35 1631.65 1504.41 1631.81 1504.51 1631.94C1504.62 1632.06 1504.76 1632.17 1504.93 1632.24C1505.11 1632.3 1505.3 1632.34 1505.5 1632.34ZM1512.09 1634C1511.98 1634 1511.88 1633.96 1511.81 1633.89C1511.73 1633.8 1511.69 1633.71 1511.69 1633.6V1626.08C1511.69 1625.97 1511.73 1625.88 1511.81 1625.81C1511.88 1625.72 1511.98 1625.68 1512.09 1625.68H1513.93C1514.05 1625.68 1514.15 1625.72 1514.22 1625.81C1514.31 1625.88 1514.35 1625.97 1514.35 1626.08V1626.72C1514.63 1626.39 1514.96 1626.13 1515.36 1625.95C1515.76 1625.77 1516.22 1625.68 1516.72 1625.68H1517.42C1517.54 1625.68 1517.64 1625.72 1517.71 1625.79C1517.78 1625.87 1517.82 1625.96 1517.82 1626.08V1627.73C1517.82 1627.83 1517.78 1627.93 1517.71 1628.02C1517.64 1628.09 1517.54 1628.13 1517.42 1628.13H1515.87C1515.43 1628.13 1515.09 1628.25 1514.85 1628.5C1514.61 1628.73 1514.49 1629.07 1514.49 1629.5V1633.6C1514.49 1633.71 1514.45 1633.8 1514.37 1633.89C1514.29 1633.96 1514.2 1634 1514.08 1634H1512.09ZM1522.72 1634.16C1521.93 1634.16 1521.23 1634.02 1520.63 1633.73C1520.02 1633.44 1519.53 1633.02 1519.17 1632.48C1518.82 1631.93 1518.63 1631.26 1518.59 1630.5C1518.58 1630.33 1518.58 1630.11 1518.58 1629.86C1518.58 1629.59 1518.58 1629.37 1518.59 1629.2C1518.63 1628.42 1518.82 1627.76 1519.17 1627.22C1519.52 1626.66 1520 1626.24 1520.61 1625.95C1521.23 1625.66 1521.93 1625.52 1522.72 1625.52C1523.46 1625.52 1524.09 1625.63 1524.61 1625.84C1525.14 1626.04 1525.57 1626.3 1525.89 1626.61C1526.22 1626.92 1526.47 1627.24 1526.63 1627.57C1526.8 1627.89 1526.89 1628.17 1526.9 1628.42C1526.91 1628.52 1526.87 1628.62 1526.79 1628.7C1526.7 1628.78 1526.6 1628.82 1526.5 1628.82H1524.47C1524.35 1628.82 1524.26 1628.79 1524.19 1628.74C1524.13 1628.68 1524.07 1628.6 1524.02 1628.5C1523.89 1628.17 1523.72 1627.93 1523.52 1627.79C1523.33 1627.65 1523.08 1627.58 1522.77 1627.58C1522.34 1627.58 1522.01 1627.72 1521.78 1628C1521.55 1628.28 1521.43 1628.7 1521.41 1629.28C1521.4 1629.71 1521.4 1630.09 1521.41 1630.42C1521.44 1631 1521.57 1631.43 1521.79 1631.7C1522.02 1631.96 1522.34 1632.1 1522.77 1632.1C1523.1 1632.1 1523.36 1632.03 1523.55 1631.89C1523.75 1631.74 1523.9 1631.5 1524.02 1631.18C1524.07 1631.08 1524.13 1631 1524.19 1630.94C1524.26 1630.89 1524.35 1630.86 1524.47 1630.86H1526.5C1526.6 1630.86 1526.7 1630.9 1526.79 1630.98C1526.87 1631.05 1526.91 1631.15 1526.9 1631.26C1526.89 1631.43 1526.83 1631.64 1526.74 1631.89C1526.64 1632.13 1526.49 1632.39 1526.29 1632.66C1526.09 1632.92 1525.82 1633.17 1525.49 1633.39C1525.17 1633.62 1524.78 1633.8 1524.32 1633.95C1523.86 1634.09 1523.33 1634.16 1522.72 1634.16ZM1528.73 1634C1528.62 1634 1528.52 1633.96 1528.45 1633.89C1528.37 1633.8 1528.33 1633.71 1528.33 1633.6V1623.04C1528.33 1622.92 1528.37 1622.83 1528.45 1622.75C1528.52 1622.68 1528.62 1622.64 1528.73 1622.64H1530.78C1530.9 1622.64 1531 1622.68 1531.07 1622.75C1531.15 1622.83 1531.18 1622.92 1531.18 1623.04V1626.61C1531.47 1626.28 1531.82 1626.02 1532.24 1625.82C1532.67 1625.62 1533.16 1625.52 1533.71 1625.52C1534.33 1625.52 1534.88 1625.66 1535.36 1625.94C1535.85 1626.21 1536.23 1626.62 1536.51 1627.15C1536.79 1627.69 1536.93 1628.35 1536.93 1629.14V1633.6C1536.93 1633.71 1536.89 1633.8 1536.81 1633.89C1536.74 1633.96 1536.64 1634 1536.53 1634H1534.46C1534.36 1634 1534.26 1633.96 1534.17 1633.89C1534.1 1633.8 1534.06 1633.71 1534.06 1633.6V1629.23C1534.06 1628.73 1533.94 1628.35 1533.69 1628.08C1533.46 1627.8 1533.11 1627.66 1532.65 1627.66C1532.21 1627.66 1531.85 1627.8 1531.58 1628.08C1531.32 1628.35 1531.18 1628.73 1531.18 1629.23V1633.6C1531.18 1633.71 1531.15 1633.8 1531.07 1633.89C1531 1633.96 1530.9 1634 1530.78 1634H1528.73Z" fill="white"/>
</g>
<defs>
<clipPath id="clip0_321_60">
<rect width="1920" height="3361" fill="white"/>
</clipPath>
</defs>
</svg>
